<svg width="25" height="25" viewBox="0 0 25 25" fill="none" xmlns="http://www.w3.org/2000/svg">
<path d="M11.391 3.67251C11.772 2.64302 13.2281 2.64302 13.609 3.67251L15.5051 8.79665C15.6249 9.12032 15.8801 9.37552 16.2038 9.49529L21.3279 11.3914C22.3574 11.7723 22.3574 13.2284 21.3279 13.6094L16.2038 15.5055C15.8801 15.6253 15.6249 15.8805 15.5051 16.2041L13.609 21.3283C13.2281 22.3578 11.772 22.3578 11.391 21.3283L9.49492 16.2041C9.37515 15.8805 9.11996 15.6253 8.79629 15.5055L3.67215 13.6094C2.64265 13.2284 2.64265 11.7723 3.67215 11.3914L8.79629 9.49529C9.11996 9.37552 9.37515 9.12032 9.49492 8.79665L11.391 3.67251Z" fill="#FF0000" stroke="black" stroke-linejoin="round"/>
</svg>
