<svg width="25" height="25" viewBox="0 0 25 25" fill="none" xmlns="http://www.w3.org/2000/svg">
<path d="M14.5 10.5H19.264C19.6049 10.5 19.9401 10.5871 20.2378 10.7531C20.5355 10.9191 20.7859 11.1584 20.9651 11.4484C21.1444 11.7383 21.2465 12.0692 21.2619 12.4098C21.2773 12.7503 21.2054 13.0891 21.053 13.394L17.553 20.394C17.3869 20.7265 17.1314 21.0061 16.8152 21.2014C16.499 21.3968 16.1347 21.5002 15.763 21.5H11.746C11.583 21.5 11.42 21.48 11.261 21.44L7.5 20.5M14.5 10.5V5.5C14.5 4.96957 14.2893 4.46086 13.9142 4.08579C13.5391 3.71071 13.0304 3.5 12.5 3.5H12.405C11.905 3.5 11.5 3.905 11.5 4.405C11.5 5.119 11.289 5.817 10.892 6.411L7.5 11.5V20.5M14.5 10.5H12.5M7.5 20.5H5.5C4.96957 20.5 4.46086 20.2893 4.08579 19.9142C3.71071 19.5391 3.5 19.0304 3.5 18.5V12.5C3.5 11.9696 3.71071 11.4609 4.08579 11.0858C4.46086 10.7107 4.96957 10.5 5.5 10.5H8" stroke="#7E7267" stroke-width="2" stroke-linecap="round" stroke-linejoin="round"/>
</svg>
